<?xml version="1.0" encoding="UTF-8" standalone="no"?><svg xmlns="http://www.w3.org/2000/svg" xmlns:xlink="http://www.w3.org/1999/xlink" contentStyleType="text/css" height="856px" preserveAspectRatio="none" style="width:708px;height:856px;background:#FFFFFF;" version="1.1" viewBox="0 0 708 856" width="708.8px" zoomAndPan="magnify"><defs/><g><!--cluster class diagram--><g id="cluster_class diagram"><path d="M6.8,4.8 L84.4,4.8 A3,3 0 0 1 86.4,6.8 L92,22.1125 L701.2,22.1125 A2,2 0 0 1 703.2,24.1125 L703.2,848.4 A2,2 0 0 1 701.2,850.4 L6.8,850.4 A2,2 0 0 1 4.8,848.4 L4.8,6.8 A2,2 0 0 1 6.8,4.8 " fill="none" style="stroke:#000000;stroke-width:1.2000000000000002;"/><line style="stroke:#000000;stroke-width:1.2000000000000002;" x1="4.8" x2="92" y1="22.1125" y2="22.1125"/><text fill="#000000" font-family="sans-serif" font-size="11.2" font-weight="bold" lengthAdjust="spacing" textLength="76.8" x="8" y="16.5391">class diagram</text></g><!--class User--><g id="elem_User"><rect codeLine="4" fill="#F1F1F1" height="201.0625" id="User" rx="2" ry="2" style="stroke:#181818;stroke-width:0.4000000000000001;" width="142.4" x="548" y="100.8"/><ellipse cx="604.2" cy="113.6" fill="#ADD1B2" rx="8.8" ry="8.8" style="stroke:#181818;stroke-width:0.8000000000000002;"/><path d="M605.8,110.8 Q605.9625,110.4 606.15,110.2 Q606.3375,110 606.55,110 Q606.925,110 607.1625,110.225 Q607.4,110.45 607.4,110.975 L607.4,112.225 Q607.4,112.75 607.175,112.975 Q606.95,113.2 606.6,113.2 Q606.2875,113.2 606.0875,113.0625 Q605.8875,112.925 605.8,112.5625 Q605.7625,112.3125 605.625,112.175 Q605.375,111.9125 604.925,111.7625 Q604.475,111.6 604.025,111.6 Q603.4625,111.6 602.9875,111.825 Q602.525,112.05 602.1625,112.55 Q601.8,113.05 601.8,113.7375 L601.8,114.475 Q601.8,115.3 602.475,115.85 Q603.15,116.4 604.35,116.4 Q605.0625,116.4 605.5625,116.2375 Q605.85,116.15 606.175,115.8625 Q606.3875,115.7 606.5,115.65 Q606.6125,115.6 606.75,115.6 Q607.0125,115.6 607.2,115.8125 Q607.4,116.0125 607.4,116.3 Q607.4,116.575 607.125,116.9 Q606.725,117.375 606.0875,117.6375 Q605.25,118 604.225,118 Q603.025,118 602.0625,117.525 Q601.2875,117.15 600.7375,116.3375 Q600.2,115.525 600.2,114.5625 L600.2,113.6875 Q600.2,112.6875 600.675,111.8125 Q601.1625,110.9375 602,110.475 Q602.85,110 603.8,110 Q604.375,110 604.875,110.2 Q605.375,110.4 605.8,110.8 Z " fill="#000000"/><text fill="#000000" font-family="sans-serif" font-size="11.2" lengthAdjust="spacing" textLength="23.2" x="620.6" y="117.4828">User</text><line style="stroke:#181818;stroke-width:0.4000000000000001;" x1="548.8" x2="689.6" y1="126.4" y2="126.4"/><rect fill="none" height="4.8" style="stroke:#C82930;stroke-width:0.8000000000000002;" width="4.8" x="554.4" y="134.6563"/><text fill="#000000" font-family="sans-serif" font-size="11.2" lengthAdjust="spacing" textLength="40" x="564" y="139.7391">id : uuid</text><rect fill="none" height="4.8" style="stroke:#C82930;stroke-width:0.8000000000000002;" width="4.8" x="554.4" y="147.1688"/><text fill="#000000" font-family="sans-serif" font-size="11.2" lengthAdjust="spacing" textLength="88" x="564" y="152.2516">username : string</text><rect fill="none" height="4.8" style="stroke:#C82930;stroke-width:0.8000000000000002;" width="4.8" x="554.4" y="159.6813"/><text fill="#000000" font-family="sans-serif" font-size="11.2" lengthAdjust="spacing" textLength="85.6" x="564" y="164.7641">password : string</text><rect fill="none" height="4.8" style="stroke:#C82930;stroke-width:0.8000000000000002;" width="4.8" x="554.4" y="172.1938"/><text fill="#000000" font-family="sans-serif" font-size="11.2" lengthAdjust="spacing" textLength="65.6" x="564" y="177.2766">name : string</text><rect fill="none" height="4.8" style="stroke:#C82930;stroke-width:0.8000000000000002;" width="4.8" x="554.4" y="184.7063"/><text fill="#000000" font-family="sans-serif" font-size="11.2" lengthAdjust="spacing" textLength="81.6" x="564" y="189.7891">surname : string</text><rect fill="none" height="4.8" style="stroke:#C82930;stroke-width:0.8000000000000002;" width="4.8" x="554.4" y="197.2188"/><text fill="#000000" font-family="sans-serif" font-size="11.2" lengthAdjust="spacing" textLength="69.6" x="564" y="202.3016">phone : string</text><rect fill="none" height="4.8" style="stroke:#C82930;stroke-width:0.8000000000000002;" width="4.8" x="554.4" y="209.7313"/><text fill="#000000" font-family="sans-serif" font-size="11.2" lengthAdjust="spacing" textLength="64" x="564" y="214.8141">email : string</text><rect fill="none" height="4.8" style="stroke:#C82930;stroke-width:0.8000000000000002;" width="4.8" x="554.4" y="222.2438"/><text fill="#000000" font-family="sans-serif" font-size="11.2" lengthAdjust="spacing" textLength="81.6" x="564" y="227.3266">role - RoleEnum</text><rect fill="none" height="4.8" style="stroke:#C82930;stroke-width:0.8000000000000002;" width="4.8" x="554.4" y="234.7563"/><text fill="#000000" font-family="sans-serif" font-size="11.2" lengthAdjust="spacing" textLength="70.4" x="564" y="239.8391">faculty : string</text><line style="stroke:#181818;stroke-width:0.4000000000000001;" x1="548.8" x2="689.6" y1="245.4125" y2="245.4125"/><ellipse cx="556.8" cy="256.0688" fill="#84BE84" rx="2.4" ry="2.4" style="stroke:#038048;stroke-width:0.8000000000000002;"/><text fill="#000000" font-family="sans-serif" font-size="11.2" lengthAdjust="spacing" textLength="106.4" x="564" y="258.7516">getOne() : UserEntity</text><ellipse cx="556.8" cy="268.5813" fill="#84BE84" rx="2.4" ry="2.4" style="stroke:#038048;stroke-width:0.8000000000000002;"/><text fill="#000000" font-family="sans-serif" font-size="11.2" lengthAdjust="spacing" textLength="121.6" x="564" y="271.2641">getAll() : UserArrayType</text><ellipse cx="556.8" cy="281.0938" fill="#84BE84" rx="2.4" ry="2.4" style="stroke:#038048;stroke-width:0.8000000000000002;"/><text fill="#000000" font-family="sans-serif" font-size="11.2" lengthAdjust="spacing" textLength="73.6" x="564" y="283.7766">update() : void</text><ellipse cx="556.8" cy="293.6063" fill="#84BE84" rx="2.4" ry="2.4" style="stroke:#038048;stroke-width:0.8000000000000002;"/><text fill="#000000" font-family="sans-serif" font-size="11.2" lengthAdjust="spacing" textLength="69.6" x="564" y="296.2891">delete() : void</text></g><g id="elem_GMN4"><path d="M591.2,32 L591.2,51.6188 A0,0 0 0 0 591.2,51.6188 L616,51.6188 L619.2,100.456 L622.4,51.6188 L647.2,51.6188 A0,0 0 0 0 647.2,51.6188 L647.2,40 L639.2,32 L591.2,32 A0,0 0 0 0 591.2,32 " fill="#FEFFDD" style="stroke:#181818;stroke-width:0.4000000000000001;"/><path d="M639.2,32 L639.2,40 L647.2,40 L639.2,32 " fill="#FEFFDD" style="stroke:#181818;stroke-width:0.4000000000000001;"/><text fill="#000000" font-family="sans-serif" font-size="10.4" lengthAdjust="spacing" textLength="39.2" x="596" y="45.4148">บัญชีผู้ใช้</text></g><!--class RoleEnum--><g id="elem_RoleEnum"><rect codeLine="22" fill="#F1F1F1" height="63.425" id="RoleEnum" rx="2" ry="2" style="stroke:#181818;stroke-width:0.4000000000000001;" width="77.6" x="579.6" y="412.4"/><ellipse cx="591.6" cy="425.2" fill="#EB937F" rx="8.8" ry="8.8" style="stroke:#181818;stroke-width:0.8000000000000002;"/><path d="M590.4,426 L590.4,427.6 L593.6,427.6 L593.6,426.8 L593.6,426.4125 L594.1,426 L594.4,426 L594.7,426 L595.2,426.4125 L595.2,426.8 L595.2,429.2 L588.8,429.2 L588.4125,429.2 L588,428.7 L588,428.4 L588,428.1 L588.4125,427.6 L588.8,427.6 L588.8,427.6 L588.8,422.8 L588.8,422.8 L588.4125,422.8 L588,422.3 L588,422 L588,421.7 L588.4125,421.2 L588.8,421.2 L595.2,421.2 L595.2,423.6 L595.2,423.9875 L594.7,424.4 L594.4,424.4 L594.1,424.4 L593.6,423.9875 L593.6,423.6 L593.6,422.8 L590.4,422.8 L590.4,424.4 L591.2,424.4 L591.2,424.0125 L591.2,424.0125 L591.7,423.6 L592,423.6 L592.3,423.6 L592.8,424.0125 L592.8,424.4 L592.8,426 L592.8,426.3875 L592.3,426.8 L592.3,426.8 L592,426.8 L591.7,426.8 L591.2,426.3875 L591.2,426.3875 L591.2,426 L590.4,426 Z " fill="#000000"/><text fill="#000000" font-family="sans-serif" font-size="11.2" lengthAdjust="spacing" textLength="52" x="602.8" y="429.0828">RoleEnum</text><line style="stroke:#181818;stroke-width:0.4000000000000001;" x1="580.4" x2="656.4" y1="438" y2="438"/><rect fill="none" height="4.8" style="stroke:#C82930;stroke-width:0.8000000000000002;" width="4.8" x="586" y="446.2563"/><text fill="#000000" font-family="sans-serif" font-size="11.2" lengthAdjust="spacing" textLength="29.6" x="595.6" y="451.3391">USER</text><rect fill="none" height="4.8" style="stroke:#C82930;stroke-width:0.8000000000000002;" width="4.8" x="586" y="458.7688"/><text fill="#000000" font-family="sans-serif" font-size="11.2" lengthAdjust="spacing" textLength="33.6" x="595.6" y="463.8516">ADMIN</text><line style="stroke:#181818;stroke-width:0.4000000000000001;" x1="580.4" x2="656.4" y1="469.425" y2="469.425"/></g><g id="elem_GMN8"><path d="M543.2,696.4 L543.2,727.6375 A0,0 0 0 0 543.2,727.6375 L690.4,727.6375 A0,0 0 0 0 690.4,727.6375 L690.4,704.4 L682.4,696.4 L620.088,696.4 L618.216,475.616 L613.688,696.4 L543.2,696.4 A0,0 0 0 0 543.2,696.4 " fill="#FEFFDD" style="stroke:#181818;stroke-width:0.4000000000000001;"/><path d="M682.4,696.4 L682.4,704.4 L690.4,704.4 L682.4,696.4 " fill="#FEFFDD" style="stroke:#181818;stroke-width:0.4000000000000001;"/><text fill="#000000" font-family="sans-serif" font-size="10.4" lengthAdjust="spacing" textLength="130.4" x="548" y="709.8148">- สำนักวิชาการและงานทะเบียน</text><text fill="#000000" font-family="sans-serif" font-size="10.4" lengthAdjust="spacing" textLength="43.2" x="599.2" y="721.4336">- หลักสูตร</text></g><!--class Course--><g id="elem_Course"><rect codeLine="28" fill="#F1F1F1" height="163.525" id="Course" rx="2" ry="2" style="stroke:#181818;stroke-width:0.4000000000000001;" width="158.4" x="20" y="362.4"/><ellipse cx="77.4" cy="375.2" fill="#ADD1B2" rx="8.8" ry="8.8" style="stroke:#181818;stroke-width:0.8000000000000002;"/><path d="M79,372.4 Q79.1625,372 79.35,371.8 Q79.5375,371.6 79.75,371.6 Q80.125,371.6 80.3625,371.825 Q80.6,372.05 80.6,372.575 L80.6,373.825 Q80.6,374.35 80.375,374.575 Q80.15,374.8 79.8,374.8 Q79.4875,374.8 79.2875,374.6625 Q79.0875,374.525 79,374.1625 Q78.9625,373.9125 78.825,373.775 Q78.575,373.5125 78.125,373.3625 Q77.675,373.2 77.225,373.2 Q76.6625,373.2 76.1875,373.425 Q75.725,373.65 75.3625,374.15 Q75,374.65 75,375.3375 L75,376.075 Q75,376.9 75.675,377.45 Q76.35,378 77.55,378 Q78.2625,378 78.7625,377.8375 Q79.05,377.75 79.375,377.4625 Q79.5875,377.3 79.7,377.25 Q79.8125,377.2 79.95,377.2 Q80.2125,377.2 80.4,377.4125 Q80.6,377.6125 80.6,377.9 Q80.6,378.175 80.325,378.5 Q79.925,378.975 79.2875,379.2375 Q78.45,379.6 77.425,379.6 Q76.225,379.6 75.2625,379.125 Q74.4875,378.75 73.9375,377.9375 Q73.4,377.125 73.4,376.1625 L73.4,375.2875 Q73.4,374.2875 73.875,373.4125 Q74.3625,372.5375 75.2,372.075 Q76.05,371.6 77,371.6 Q77.575,371.6 78.075,371.8 Q78.575,372 79,372.4 Z " fill="#000000"/><text fill="#000000" font-family="sans-serif" font-size="11.2" lengthAdjust="spacing" textLength="36.8" x="93.8" y="379.0828">Course</text><line style="stroke:#181818;stroke-width:0.4000000000000001;" x1="20.8" x2="177.6" y1="388" y2="388"/><rect fill="none" height="4.8" style="stroke:#C82930;stroke-width:0.8000000000000002;" width="4.8" x="26.4" y="396.2563"/><text fill="#000000" font-family="sans-serif" font-size="11.2" lengthAdjust="spacing" textLength="40" x="36" y="401.3391">id : uuid</text><rect fill="none" height="4.8" style="stroke:#C82930;stroke-width:0.8000000000000002;" width="4.8" x="26.4" y="408.7688"/><text fill="#000000" font-family="sans-serif" font-size="11.2" lengthAdjust="spacing" textLength="65.6" x="36" y="413.8516">major : string</text><rect fill="none" height="4.8" style="stroke:#C82930;stroke-width:0.8000000000000002;" width="4.8" x="26.4" y="421.2813"/><text fill="#000000" font-family="sans-serif" font-size="11.2" lengthAdjust="spacing" textLength="73.6" x="36" y="426.3641">degree : string</text><rect fill="none" height="4.8" style="stroke:#C82930;stroke-width:0.8000000000000002;" width="4.8" x="26.4" y="433.7938"/><text fill="#000000" font-family="sans-serif" font-size="11.2" lengthAdjust="spacing" textLength="137.6" x="36" y="438.8766">studentQualification : string</text><rect fill="none" height="4.8" style="stroke:#C82930;stroke-width:0.8000000000000002;" width="4.8" x="26.4" y="446.3063"/><text fill="#000000" font-family="sans-serif" font-size="11.2" lengthAdjust="spacing" textLength="70.4" x="36" y="451.3891">faculty : string</text><line style="stroke:#181818;stroke-width:0.4000000000000001;" x1="20.8" x2="177.6" y1="456.9625" y2="456.9625"/><ellipse cx="28.8" cy="467.6188" fill="#84BE84" rx="2.4" ry="2.4" style="stroke:#038048;stroke-width:0.8000000000000002;"/><text fill="#000000" font-family="sans-serif" font-size="11.2" lengthAdjust="spacing" textLength="120" x="36" y="470.3016">getOne() : CourseEntity</text><ellipse cx="28.8" cy="480.1313" fill="#84BE84" rx="2.4" ry="2.4" style="stroke:#038048;stroke-width:0.8000000000000002;"/><text fill="#000000" font-family="sans-serif" font-size="11.2" lengthAdjust="spacing" textLength="135.2" x="36" y="482.8141">getAll() : CourseArrayType</text><ellipse cx="28.8" cy="492.6438" fill="#84BE84" rx="2.4" ry="2.4" style="stroke:#038048;stroke-width:0.8000000000000002;"/><text fill="#000000" font-family="sans-serif" font-size="11.2" lengthAdjust="spacing" textLength="114.4" x="36" y="495.3266">create() : CourseEntity</text><ellipse cx="28.8" cy="505.1563" fill="#84BE84" rx="2.4" ry="2.4" style="stroke:#038048;stroke-width:0.8000000000000002;"/><text fill="#000000" font-family="sans-serif" font-size="11.2" lengthAdjust="spacing" textLength="73.6" x="36" y="507.8391">update() : void</text><ellipse cx="28.8" cy="517.6688" fill="#84BE84" rx="2.4" ry="2.4" style="stroke:#038048;stroke-width:0.8000000000000002;"/><text fill="#000000" font-family="sans-serif" font-size="11.2" lengthAdjust="spacing" textLength="69.6" x="36" y="520.3516">delete() : void</text></g><g id="elem_GMN12"><path d="M22,702 L22,721.6188 A0,0 0 0 0 22,721.6188 L101.2,721.6188 A0,0 0 0 0 101.2,721.6188 L101.2,710 L93.2,702 L66.152,702 L87.768,525.816 L59.752,702 L22,702 A0,0 0 0 0 22,702 " fill="#FEFFDD" style="stroke:#181818;stroke-width:0.4000000000000001;"/><path d="M93.2,702 L93.2,710 L101.2,710 L93.2,702 " fill="#FEFFDD" style="stroke:#181818;stroke-width:0.4000000000000001;"/><text fill="#000000" font-family="sans-serif" font-size="10.4" lengthAdjust="spacing" textLength="62.4" x="26.8" y="715.4148">ข้อมูลหลักสูตร</text></g><!--class ResponsibleQuotaPerson--><g id="elem_ResponsibleQuotaPerson"><rect codeLine="43" fill="#F1F1F1" height="188.55" id="ResponsibleQuotaPerson" rx="2" ry="2" style="stroke:#181818;stroke-width:0.4000000000000001;" width="248.8" x="270.8" y="106.8"/><ellipse cx="327" cy="119.6" fill="#ADD1B2" rx="8.8" ry="8.8" style="stroke:#181818;stroke-width:0.8000000000000002;"/><path d="M328.6,116.8 Q328.7625,116.4 328.95,116.2 Q329.1375,116 329.35,116 Q329.725,116 329.9625,116.225 Q330.2,116.45 330.2,116.975 L330.2,118.225 Q330.2,118.75 329.975,118.975 Q329.75,119.2 329.4,119.2 Q329.0875,119.2 328.8875,119.0625 Q328.6875,118.925 328.6,118.5625 Q328.5625,118.3125 328.425,118.175 Q328.175,117.9125 327.725,117.7625 Q327.275,117.6 326.825,117.6 Q326.2625,117.6 325.7875,117.825 Q325.325,118.05 324.9625,118.55 Q324.6,119.05 324.6,119.7375 L324.6,120.475 Q324.6,121.3 325.275,121.85 Q325.95,122.4 327.15,122.4 Q327.8625,122.4 328.3625,122.2375 Q328.65,122.15 328.975,121.8625 Q329.1875,121.7 329.3,121.65 Q329.4125,121.6 329.55,121.6 Q329.8125,121.6 330,121.8125 Q330.2,122.0125 330.2,122.3 Q330.2,122.575 329.925,122.9 Q329.525,123.375 328.8875,123.6375 Q328.05,124 327.025,124 Q325.825,124 324.8625,123.525 Q324.0875,123.15 323.5375,122.3375 Q323,121.525 323,120.5625 L323,119.6875 Q323,118.6875 323.475,117.8125 Q323.9625,116.9375 324.8,116.475 Q325.65,116 326.6,116 Q327.175,116 327.675,116.2 Q328.175,116.4 328.6,116.8 Z " fill="#000000"/><text fill="#000000" font-family="sans-serif" font-size="11.2" lengthAdjust="spacing" textLength="129.6" x="343.4" y="123.4828">ResponsibleQuotaPerson</text><line style="stroke:#181818;stroke-width:0.4000000000000001;" x1="271.6" x2="518.8" y1="132.4" y2="132.4"/><rect fill="none" height="4.8" style="stroke:#C82930;stroke-width:0.8000000000000002;" width="4.8" x="277.2" y="140.6563"/><text fill="#000000" font-family="sans-serif" font-size="11.2" lengthAdjust="spacing" textLength="40" x="286.8" y="145.7391">id : uuid</text><rect fill="none" height="4.8" style="stroke:#C82930;stroke-width:0.8000000000000002;" width="4.8" x="277.2" y="153.1688"/><text fill="#000000" font-family="sans-serif" font-size="11.2" lengthAdjust="spacing" textLength="60" x="286.8" y="158.2516">year : string</text><rect fill="none" height="4.8" style="stroke:#C82930;stroke-width:0.8000000000000002;" width="4.8" x="277.2" y="165.6813"/><text fill="#000000" font-family="sans-serif" font-size="11.2" lengthAdjust="spacing" textLength="65.6" x="286.8" y="170.7641">name : string</text><rect fill="none" height="4.8" style="stroke:#C82930;stroke-width:0.8000000000000002;" width="4.8" x="277.2" y="178.1938"/><text fill="#000000" font-family="sans-serif" font-size="11.2" lengthAdjust="spacing" textLength="81.6" x="286.8" y="183.2766">surname : string</text><rect fill="none" height="4.8" style="stroke:#C82930;stroke-width:0.8000000000000002;" width="4.8" x="277.2" y="190.7063"/><text fill="#000000" font-family="sans-serif" font-size="11.2" lengthAdjust="spacing" textLength="74.4" x="286.8" y="195.7891">agency : string</text><rect fill="none" height="4.8" style="stroke:#C82930;stroke-width:0.8000000000000002;" width="4.8" x="277.2" y="203.2188"/><text fill="#000000" font-family="sans-serif" font-size="11.2" lengthAdjust="spacing" textLength="69.6" x="286.8" y="208.3016">phone : string</text><rect fill="none" height="4.8" style="stroke:#C82930;stroke-width:0.8000000000000002;" width="4.8" x="277.2" y="215.7313"/><text fill="#000000" font-family="sans-serif" font-size="11.2" lengthAdjust="spacing" textLength="98.4" x="286.8" y="220.8141">quota : QuotaEnum</text><line style="stroke:#181818;stroke-width:0.4000000000000001;" x1="271.6" x2="518.8" y1="226.3875" y2="226.3875"/><ellipse cx="279.6" cy="237.0438" fill="#84BE84" rx="2.4" ry="2.4" style="stroke:#038048;stroke-width:0.8000000000000002;"/><text fill="#000000" font-family="sans-serif" font-size="11.2" lengthAdjust="spacing" textLength="212.8" x="286.8" y="239.7266">getOne() : ResponsibleQuotaPersonEntity</text><ellipse cx="279.6" cy="249.5563" fill="#84BE84" rx="2.4" ry="2.4" style="stroke:#038048;stroke-width:0.8000000000000002;"/><text fill="#000000" font-family="sans-serif" font-size="11.2" lengthAdjust="spacing" textLength="228" x="286.8" y="252.2391">getAll() : ResponsibleQuotaPersonArrayType</text><ellipse cx="279.6" cy="262.0688" fill="#84BE84" rx="2.4" ry="2.4" style="stroke:#038048;stroke-width:0.8000000000000002;"/><text fill="#000000" font-family="sans-serif" font-size="11.2" lengthAdjust="spacing" textLength="207.2" x="286.8" y="264.7516">create() : ResponsibleQuotaPersonEntity</text><ellipse cx="279.6" cy="274.5813" fill="#84BE84" rx="2.4" ry="2.4" style="stroke:#038048;stroke-width:0.8000000000000002;"/><text fill="#000000" font-family="sans-serif" font-size="11.2" lengthAdjust="spacing" textLength="73.6" x="286.8" y="277.2641">update() : void</text><ellipse cx="279.6" cy="287.0938" fill="#84BE84" rx="2.4" ry="2.4" style="stroke:#038048;stroke-width:0.8000000000000002;"/><text fill="#000000" font-family="sans-serif" font-size="11.2" lengthAdjust="spacing" textLength="69.6" x="286.8" y="289.7766">delete() : void</text></g><g id="elem_GMN16"><path d="M348.4,32 L348.4,51.6188 A0,0 0 0 0 348.4,51.6188 L392,51.6188 L395.2,106.592 L398.4,51.6188 L442,51.6188 A0,0 0 0 0 442,51.6188 L442,40 L434,32 L348.4,32 A0,0 0 0 0 348.4,32 " fill="#FEFFDD" style="stroke:#181818;stroke-width:0.4000000000000001;"/><path d="M434,32 L434,40 L442,40 L434,32 " fill="#FEFFDD" style="stroke:#181818;stroke-width:0.4000000000000001;"/><text fill="#000000" font-family="sans-serif" font-size="10.4" lengthAdjust="spacing" textLength="76.8" x="353.2" y="45.4148">ผู้รับผิดชอบโควตา</text></g><!--class QuotaEnum--><g id="elem_QuotaEnum"><rect codeLine="60" fill="#F1F1F1" height="88.45" id="QuotaEnum" rx="2" ry="2" style="stroke:#181818;stroke-width:0.4000000000000001;" width="99.2" x="382.4" y="399.6"/><ellipse cx="400.52" cy="412.4" fill="#EB937F" rx="8.8" ry="8.8" style="stroke:#181818;stroke-width:0.8000000000000002;"/><path d="M399.32,413.2 L399.32,414.8 L402.52,414.8 L402.52,414 L402.52,413.6125 L403.02,413.2 L403.32,413.2 L403.62,413.2 L404.12,413.6125 L404.12,414 L404.12,416.4 L397.72,416.4 L397.3325,416.4 L396.92,415.9 L396.92,415.6 L396.92,415.3 L397.3325,414.8 L397.72,414.8 L397.72,414.8 L397.72,410 L397.72,410 L397.3325,410 L396.92,409.5 L396.92,409.2 L396.92,408.9 L397.3325,408.4 L397.72,408.4 L404.12,408.4 L404.12,410.8 L404.12,411.1875 L403.62,411.6 L403.32,411.6 L403.02,411.6 L402.52,411.1875 L402.52,410.8 L402.52,410 L399.32,410 L399.32,411.6 L400.12,411.6 L400.12,411.2125 L400.12,411.2125 L400.62,410.8 L400.92,410.8 L401.22,410.8 L401.72,411.2125 L401.72,411.6 L401.72,413.2 L401.72,413.5875 L401.22,414 L401.22,414 L400.92,414 L400.62,414 L400.12,413.5875 L400.12,413.5875 L400.12,413.2 L399.32,413.2 Z " fill="#000000"/><text fill="#000000" font-family="sans-serif" font-size="11.2" lengthAdjust="spacing" textLength="60" x="413.08" y="416.2828">QuotaEnum</text><line style="stroke:#181818;stroke-width:0.4000000000000001;" x1="383.2" x2="480.8" y1="425.2" y2="425.2"/><text fill="#000000" font-family="sans-serif" font-size="11.2" lengthAdjust="spacing" textLength="77.6" x="387.2" y="438.5391">GOOD_STUDY</text><text fill="#000000" font-family="sans-serif" font-size="11.2" lengthAdjust="spacing" textLength="89.6" x="387.2" y="451.0516">GOOD_ACTIVITY</text><text fill="#000000" font-family="sans-serif" font-size="11.2" lengthAdjust="spacing" textLength="79.2" x="387.2" y="463.5641">GOOD_SPORT</text><text fill="#000000" font-family="sans-serif" font-size="11.2" lengthAdjust="spacing" textLength="86.4" x="387.2" y="476.0766">GOOD_PERSON</text><line style="stroke:#181818;stroke-width:0.4000000000000001;" x1="383.2" x2="480.8" y1="481.65" y2="481.65"/></g><g id="elem_GMN20"><path d="M378.8,702 L378.8,721.6188 A0,0 0 0 0 378.8,721.6188 L510.8,721.6188 A0,0 0 0 0 510.8,721.6188 L510.8,710 L502.8,702 L447.56,702 L434.096,488.496 L441.16,702 L378.8,702 A0,0 0 0 0 378.8,702 " fill="#FEFFDD" style="stroke:#181818;stroke-width:0.4000000000000001;"/><path d="M502.8,702 L502.8,710 L510.8,710 L502.8,702 " fill="#FEFFDD" style="stroke:#181818;stroke-width:0.4000000000000001;"/><text fill="#000000" font-family="sans-serif" font-size="10.4" lengthAdjust="spacing" textLength="115.2" x="383.6" y="715.4148">เรียนดี กิจกรรมดี กีฬา คนดี</text></g><!--class AdminssionPlan--><g id="elem_AdminssionPlan"><rect codeLine="68" fill="#F1F1F1" height="251.1125" id="AdminssionPlan" rx="2" ry="2" style="stroke:#181818;stroke-width:0.4000000000000001;" width="221.6" x="129.2" y="586.4"/><ellipse cx="196.6" cy="599.2" fill="#ADD1B2" rx="8.8" ry="8.8" style="stroke:#181818;stroke-width:0.8000000000000002;"/><path d="M198.2,596.4 Q198.3625,596 198.55,595.8 Q198.7375,595.6 198.95,595.6 Q199.325,595.6 199.5625,595.825 Q199.8,596.05 199.8,596.575 L199.8,597.825 Q199.8,598.35 199.575,598.575 Q199.35,598.8 199,598.8 Q198.6875,598.8 198.4875,598.6625 Q198.2875,598.525 198.2,598.1625 Q198.1625,597.9125 198.025,597.775 Q197.775,597.5125 197.325,597.3625 Q196.875,597.2 196.425,597.2 Q195.8625,597.2 195.3875,597.425 Q194.925,597.65 194.5625,598.15 Q194.2,598.65 194.2,599.3375 L194.2,600.075 Q194.2,600.9 194.875,601.45 Q195.55,602 196.75,602 Q197.4625,602 197.9625,601.8375 Q198.25,601.75 198.575,601.4625 Q198.7875,601.3 198.9,601.25 Q199.0125,601.2 199.15,601.2 Q199.4125,601.2 199.6,601.4125 Q199.8,601.6125 199.8,601.9 Q199.8,602.175 199.525,602.5 Q199.125,602.975 198.4875,603.2375 Q197.65,603.6 196.625,603.6 Q195.425,603.6 194.4625,603.125 Q193.6875,602.75 193.1375,601.9375 Q192.6,601.125 192.6,600.1625 L192.6,599.2875 Q192.6,598.2875 193.075,597.4125 Q193.5625,596.5375 194.4,596.075 Q195.25,595.6 196.2,595.6 Q196.775,595.6 197.275,595.8 Q197.775,596 198.2,596.4 Z " fill="#000000"/><text fill="#000000" font-family="sans-serif" font-size="11.2" lengthAdjust="spacing" textLength="80" x="213" y="603.0828">AdminssionPlan</text><line style="stroke:#181818;stroke-width:0.4000000000000001;" x1="130" x2="350" y1="612" y2="612"/><rect fill="none" height="4.8" style="stroke:#C82930;stroke-width:0.8000000000000002;" width="4.8" x="135.6" y="620.2563"/><text fill="#000000" font-family="sans-serif" font-size="11.2" lengthAdjust="spacing" textLength="40" x="145.2" y="625.3391">id : uuid</text><rect fill="none" height="4.8" style="stroke:#C82930;stroke-width:0.8000000000000002;" width="4.8" x="135.6" y="632.7688"/><text fill="#000000" font-family="sans-serif" font-size="11.2" lengthAdjust="spacing" textLength="111.2" x="145.2" y="637.8516">quotaStatus : boolean</text><rect fill="none" height="4.8" style="stroke:#C82930;stroke-width:0.8000000000000002;" width="4.8" x="135.6" y="645.2813"/><text fill="#000000" font-family="sans-serif" font-size="11.2" lengthAdjust="spacing" textLength="169.6" x="145.2" y="650.3641">quotaSpecificSubject : string | null</text><rect fill="none" height="4.8" style="stroke:#C82930;stroke-width:0.8000000000000002;" width="4.8" x="135.6" y="657.7938"/><text fill="#000000" font-family="sans-serif" font-size="11.2" lengthAdjust="spacing" textLength="121.6" x="145.2" y="662.8766">quotaDetail : string | null</text><rect fill="none" height="4.8" style="stroke:#C82930;stroke-width:0.8000000000000002;" width="4.8" x="135.6" y="670.3063"/><text fill="#000000" font-family="sans-serif" font-size="11.2" lengthAdjust="spacing" textLength="110.4" x="145.2" y="675.3891">directStatus : boolean</text><rect fill="none" height="4.8" style="stroke:#C82930;stroke-width:0.8000000000000002;" width="4.8" x="135.6" y="682.8188"/><text fill="#000000" font-family="sans-serif" font-size="11.2" lengthAdjust="spacing" textLength="168.8" x="145.2" y="687.9016">directSpecificSubject : string | null</text><rect fill="none" height="4.8" style="stroke:#C82930;stroke-width:0.8000000000000002;" width="4.8" x="135.6" y="695.3313"/><text fill="#000000" font-family="sans-serif" font-size="11.2" lengthAdjust="spacing" textLength="120.8" x="145.2" y="700.4141">directDetail : string | null</text><rect fill="none" height="4.8" style="stroke:#C82930;stroke-width:0.8000000000000002;" width="4.8" x="135.6" y="707.8438"/><text fill="#000000" font-family="sans-serif" font-size="11.2" lengthAdjust="spacing" textLength="142.4" x="145.2" y="712.9266">cooperationStatus : boolean</text><rect fill="none" height="4.8" style="stroke:#C82930;stroke-width:0.8000000000000002;" width="4.8" x="135.6" y="720.3563"/><text fill="#000000" font-family="sans-serif" font-size="11.2" lengthAdjust="spacing" textLength="200.8" x="145.2" y="725.4391">cooperationSpecificSubject : string | null</text><rect fill="none" height="4.8" style="stroke:#C82930;stroke-width:0.8000000000000002;" width="4.8" x="135.6" y="732.8688"/><text fill="#000000" font-family="sans-serif" font-size="11.2" lengthAdjust="spacing" textLength="152.8" x="145.2" y="737.9516">cooperationDetail : string | null</text><rect fill="none" height="4.8" style="stroke:#C82930;stroke-width:0.8000000000000002;" width="4.8" x="135.6" y="745.3813"/><text fill="#000000" font-family="sans-serif" font-size="11.2" lengthAdjust="spacing" textLength="60" x="145.2" y="750.4641">year : string</text><rect fill="none" height="4.8" style="stroke:#C82930;stroke-width:0.8000000000000002;" width="4.8" x="135.6" y="757.8938"/><text fill="#000000" font-family="sans-serif" font-size="11.2" lengthAdjust="spacing" textLength="74.4" x="145.2" y="762.9766">courseId : uuid</text><line style="stroke:#181818;stroke-width:0.4000000000000001;" x1="130" x2="350" y1="768.55" y2="768.55"/><ellipse cx="138" cy="779.2063" fill="#84BE84" rx="2.4" ry="2.4" style="stroke:#038048;stroke-width:0.8000000000000002;"/><text fill="#000000" font-family="sans-serif" font-size="11.2" lengthAdjust="spacing" textLength="163.2" x="145.2" y="781.8891">getOne() : AdminssionPlanEntity</text><ellipse cx="138" cy="791.7188" fill="#84BE84" rx="2.4" ry="2.4" style="stroke:#038048;stroke-width:0.8000000000000002;"/><text fill="#000000" font-family="sans-serif" font-size="11.2" lengthAdjust="spacing" textLength="178.4" x="145.2" y="794.4016">getAll() : AdminssionPlanArrayType</text><ellipse cx="138" cy="804.2313" fill="#84BE84" rx="2.4" ry="2.4" style="stroke:#038048;stroke-width:0.8000000000000002;"/><text fill="#000000" font-family="sans-serif" font-size="11.2" lengthAdjust="spacing" textLength="157.6" x="145.2" y="806.9141">create() : AdminssionPlanEntity</text><ellipse cx="138" cy="816.7438" fill="#84BE84" rx="2.4" ry="2.4" style="stroke:#038048;stroke-width:0.8000000000000002;"/><text fill="#000000" font-family="sans-serif" font-size="11.2" lengthAdjust="spacing" textLength="73.6" x="145.2" y="819.4266">update() : void</text><ellipse cx="138" cy="829.2563" fill="#84BE84" rx="2.4" ry="2.4" style="stroke:#038048;stroke-width:0.8000000000000002;"/><text fill="#000000" font-family="sans-serif" font-size="11.2" lengthAdjust="spacing" textLength="69.6" x="145.2" y="831.9391">delete() : void</text></g><g id="elem_GMN24"><path d="M206.8,434 L206.8,453.6188 A0,0 0 0 0 206.8,453.6188 L273.064,453.6188 L257.656,586.096 L279.464,453.6188 L348.4,453.6188 A0,0 0 0 0 348.4,453.6188 L348.4,442 L340.4,434 L206.8,434 A0,0 0 0 0 206.8,434 " fill="#FEFFDD" style="stroke:#181818;stroke-width:0.4000000000000001;"/><path d="M340.4,434 L340.4,442 L348.4,442 L340.4,434 " fill="#FEFFDD" style="stroke:#181818;stroke-width:0.4000000000000001;"/><text fill="#000000" font-family="sans-serif" font-size="10.4" lengthAdjust="spacing" textLength="124.8" x="211.6" y="447.4148">แผนการรับนักศึกษา ภาคปกติ</text></g><!--class ExtraAdminssionPlan--><g id="elem_ExtraAdminssionPlan"><rect codeLine="94" fill="#F1F1F1" height="151.0125" id="ExtraAdminssionPlan" rx="2" ry="2" style="stroke:#181818;stroke-width:0.4000000000000001;" width="224.8" x="18" y="125.6"/><ellipse cx="74.2" cy="138.4" fill="#ADD1B2" rx="8.8" ry="8.8" style="stroke:#181818;stroke-width:0.8000000000000002;"/><path d="M75.8,135.6 Q75.9625,135.2 76.15,135 Q76.3375,134.8 76.55,134.8 Q76.925,134.8 77.1625,135.025 Q77.4,135.25 77.4,135.775 L77.4,137.025 Q77.4,137.55 77.175,137.775 Q76.95,138 76.6,138 Q76.2875,138 76.0875,137.8625 Q75.8875,137.725 75.8,137.3625 Q75.7625,137.1125 75.625,136.975 Q75.375,136.7125 74.925,136.5625 Q74.475,136.4 74.025,136.4 Q73.4625,136.4 72.9875,136.625 Q72.525,136.85 72.1625,137.35 Q71.8,137.85 71.8,138.5375 L71.8,139.275 Q71.8,140.1 72.475,140.65 Q73.15,141.2 74.35,141.2 Q75.0625,141.2 75.5625,141.0375 Q75.85,140.95 76.175,140.6625 Q76.3875,140.5 76.5,140.45 Q76.6125,140.4 76.75,140.4 Q77.0125,140.4 77.2,140.6125 Q77.4,140.8125 77.4,141.1 Q77.4,141.375 77.125,141.7 Q76.725,142.175 76.0875,142.4375 Q75.25,142.8 74.225,142.8 Q73.025,142.8 72.0625,142.325 Q71.2875,141.95 70.7375,141.1375 Q70.2,140.325 70.2,139.3625 L70.2,138.4875 Q70.2,137.4875 70.675,136.6125 Q71.1625,135.7375 72,135.275 Q72.85,134.8 73.8,134.8 Q74.375,134.8 74.875,135 Q75.375,135.2 75.8,135.6 Z " fill="#000000"/><text fill="#000000" font-family="sans-serif" font-size="11.2" lengthAdjust="spacing" textLength="105.6" x="90.6" y="142.2828">ExtraAdminssionPlan</text><line style="stroke:#181818;stroke-width:0.4000000000000001;" x1="18.8" x2="242" y1="151.2" y2="151.2"/><rect fill="none" height="4.8" style="stroke:#C82930;stroke-width:0.8000000000000002;" width="4.8" x="24.4" y="159.4563"/><text fill="#000000" font-family="sans-serif" font-size="11.2" lengthAdjust="spacing" textLength="40" x="34" y="164.5391">id : uuid</text><rect fill="none" height="4.8" style="stroke:#C82930;stroke-width:0.8000000000000002;" width="4.8" x="24.4" y="171.9688"/><text fill="#000000" font-family="sans-serif" font-size="11.2" lengthAdjust="spacing" textLength="63.2" x="34" y="177.0516">qty : number</text><rect fill="none" height="4.8" style="stroke:#C82930;stroke-width:0.8000000000000002;" width="4.8" x="24.4" y="184.4813"/><text fill="#000000" font-family="sans-serif" font-size="11.2" lengthAdjust="spacing" textLength="70.4" x="34" y="189.5641">year : number</text><rect fill="none" height="4.8" style="stroke:#C82930;stroke-width:0.8000000000000002;" width="4.8" x="24.4" y="196.9938"/><text fill="#000000" font-family="sans-serif" font-size="11.2" lengthAdjust="spacing" textLength="74.4" x="34" y="202.0766">courseId : uuid</text><line style="stroke:#181818;stroke-width:0.4000000000000001;" x1="18.8" x2="242" y1="207.65" y2="207.65"/><ellipse cx="26.8" cy="218.3063" fill="#84BE84" rx="2.4" ry="2.4" style="stroke:#038048;stroke-width:0.8000000000000002;"/><text fill="#000000" font-family="sans-serif" font-size="11.2" lengthAdjust="spacing" textLength="188.8" x="34" y="220.9891">getOne() : ExtraAdminssionPlanEntity</text><ellipse cx="26.8" cy="230.8188" fill="#84BE84" rx="2.4" ry="2.4" style="stroke:#038048;stroke-width:0.8000000000000002;"/><text fill="#000000" font-family="sans-serif" font-size="11.2" lengthAdjust="spacing" textLength="204" x="34" y="233.5016">getAll() : ExtraAdminssionPlanArrayType</text><ellipse cx="26.8" cy="243.3313" fill="#84BE84" rx="2.4" ry="2.4" style="stroke:#038048;stroke-width:0.8000000000000002;"/><text fill="#000000" font-family="sans-serif" font-size="11.2" lengthAdjust="spacing" textLength="183.2" x="34" y="246.0141">create() : ExtraAdminssionPlanEntity</text><ellipse cx="26.8" cy="255.8438" fill="#84BE84" rx="2.4" ry="2.4" style="stroke:#038048;stroke-width:0.8000000000000002;"/><text fill="#000000" font-family="sans-serif" font-size="11.2" lengthAdjust="spacing" textLength="73.6" x="34" y="258.5266">update() : void</text><ellipse cx="26.8" cy="268.3563" fill="#84BE84" rx="2.4" ry="2.4" style="stroke:#038048;stroke-width:0.8000000000000002;"/><text fill="#000000" font-family="sans-serif" font-size="11.2" lengthAdjust="spacing" textLength="69.6" x="34" y="271.0391">delete() : void</text></g><g id="elem_GMN28"><path d="M40.8,32 L40.8,51.6188 A0,0 0 0 0 40.8,51.6188 L127.2,51.6188 L130.4,125.384 L133.6,51.6188 L220,51.6188 A0,0 0 0 0 220,51.6188 L220,40 L212,32 L40.8,32 A0,0 0 0 0 40.8,32 " fill="#FEFFDD" style="stroke:#181818;stroke-width:0.4000000000000001;"/><path d="M212,32 L212,40 L220,40 L212,32 " fill="#FEFFDD" style="stroke:#181818;stroke-width:0.4000000000000001;"/><text fill="#000000" font-family="sans-serif" font-size="10.4" lengthAdjust="spacing" textLength="162.4" x="45.6" y="45.4148">แผนการรับนักศึกษาภาคพิเศษ (กศ.ป.)</text></g><!--link ResponsibleQuotaPerson to QuotaEnum--><g id="link_ResponsibleQuotaPerson_QuotaEnum"><path codeLine="110" d="M409.536,295.944 C414.984,331.656 420.928,370.656 425.336,399.544 " fill="none" id="ResponsibleQuotaPerson-QuotaEnum" style="stroke:#181818;stroke-width:0.8000000000000002;"/><text fill="#000000" font-family="sans-serif" font-size="10.4" lengthAdjust="spacing" textLength="5.6" x="404.6029" y="311.1793">1</text></g><!--link User to RoleEnum--><g id="link_User_RoleEnum"><path codeLine="112" d="M618.872,301.848 C618.736,341.504 618.592,384.248 618.504,412.224 " fill="none" id="User-RoleEnum" style="stroke:#181818;stroke-width:0.8000000000000002;"/><text fill="#000000" font-family="sans-serif" font-size="10.4" lengthAdjust="spacing" textLength="5.6" x="613.0814" y="317.7421">1</text><text fill="#000000" font-family="sans-serif" font-size="10.4" lengthAdjust="spacing" textLength="5.6" x="612.4238" y="403.7985">1</text></g><!--link ExtraAdminssionPlan to Course--><g id="link_ExtraAdminssionPlan_Course"><path codeLine="114" d="M120.696,276.992 C117.192,304.096 113.224,334.808 109.656,362.392 " fill="none" id="ExtraAdminssionPlan-Course" style="stroke:#181818;stroke-width:0.8000000000000002;"/><text fill="#000000" font-family="sans-serif" font-size="10.4" lengthAdjust="spacing" textLength="16.8" x="114.4" y="335.8148">has</text><text fill="#000000" font-family="sans-serif" font-size="10.4" lengthAdjust="spacing" textLength="16" x="103.3959" y="292.4063">1..*</text><text fill="#000000" font-family="sans-serif" font-size="10.4" lengthAdjust="spacing" textLength="5.6" x="104.6661" y="353.6612">1</text></g><!--link Course to AdminssionPlan--><g id="link_Course_AdminssionPlan"><path codeLine="116" d="M142.016,525.816 C152.128,544.952 163.144,565.792 174.024,586.368 " fill="none" id="Course-AdminssionPlan" style="stroke:#181818;stroke-width:0.8000000000000002;"/><text fill="#000000" font-family="sans-serif" font-size="10.4" lengthAdjust="spacing" textLength="20.8" x="161.6" y="559.8148">have</text><text fill="#000000" font-family="sans-serif" font-size="10.4" lengthAdjust="spacing" textLength="5.6" x="139.3547" y="541.6539">1</text><text fill="#000000" font-family="sans-serif" font-size="10.4" lengthAdjust="spacing" textLength="16" x="154.2096" y="577.8292">1..*</text></g><!--SRC=[lLRVJnD147xlNx7f2o2X2QzzQw0nVT2MjfYOa9ZjtL8EhtTrRmzjb4JH133nJM94OaH259H44NJxt-oVujnSUzqUrruLu-LoFsPcPx_RxvlPQrFZFcqoaZLiwdd4j6YJqrQMFCva21oXTTbZ72oaTymHooHvulkMgTby279eYu774znocfgl3LaUkjnCyeqQu_cZqwsvJgA3jQXb9pcuQpEuLU5MTFoMvbcbXc-Bpc1Gv9ibJIRA3fkU0MUm14L7MA8px2_OTkGlS4uxzKwRQI5-swGYJB7XQkirIqncixXd4w-EAnWHRZjFbDnNyhkIhvHygUIbaWTATbLtLtMV1vRkReYMmIT5tpP4r7AjMDLU2uktIhVZCpLS8TnM7jnAdYhvGyctEEap9JyfUO5Jd-ChN8zK5nwEbVocv3PQ8FXDyDfzYcW1v4SmhZWhOaK4ARzWU9ZlD80lzo2DBgy5r-SUInLOYwwxF8bSapKvIzQGy4tcY2MVsjQgPL1XkKvIt8GY286Eaq4OaIG4WxE-44Qa-Mkfz0bKSYlGXZnJyX0N-dYIrQyoh-qwdjMmsPBl2bfXt8DLIcEZmoZ_H-KC_SSnEdzKw0y2fE10n5ZHoOmbVzmu1fD7f30wuJJNRGRzweSg32ZTHmiKw6kiqRF0qjrIyWKMBl1yhhM7QAKqPc-MoultQlNbnRl3fi92lNIdL8zPQvLojJvigXIhjVB8Xe8juIXg2OZpag0K0VGEFXpXUQZx8FmhO2Vu8RrHkc0BPijoF0zAkMBJKKATwXinVzBInCHK4rJu7WnlkD18gNF5tsP6q4DgVcET6I8I9Nb27D-su-6BJEXRKJzgAXOMI6f8nWcu1spluVEstlei3c36OEy5J0m-Z4z3hu4BL_GSEOJDOGTV3_7y1J5QQiDrsunZ3nu3M8-Q6BKsQ0JqzCPbO5SkHGfARYZ3uXlNI8OZKnf8IjfhDevWopx0MkfluWDDHNlzPoL_uiD9M7mVC1JeVOTMqDw5NeN5HuBJYKfHapnkiI3p1kDN6RbYduoH123ZQ4a8J-5caWd-Eq4QF- -3TXgqMWWu8TDXR0vuoyraCk6YZTZZi_DPCZSNtqJnRx_d2cxHJpDwatZFpkToDwButkzSdcJNg9SDH_LiKLQCZsN10Hii6xQPmNwbGHaUaTdy3G00]--></g></svg>